<svg aria-hidden="true" style="position:absolute;width:0;height:0" xmlns="http://www.w3.org/2000/svg" overflow="hidden"><defs><symbol id="antenna" viewBox="0 0 32 32"><path d="M30.78 22.103l-8.445-8.507.937-4.617c.225.09.485.144.758.146h.033a2.16 2.16 0 10-2.03-1.421l-.005-.015-4.961.606L8.975.16A.53.53 0 008.598 0a.54.54 0 00-.374.155L6.712 1.659a.535.535 0 000 .754l.814.825C6.383 5.301 5.71 7.761 5.71 10.379c0 4.106 1.656 7.826 4.337 10.527l-.001-.001a.49.49 0 00.146.097 2.986 2.986 0 00-.052.546v6.189H3.739a2.67 2.67 0 00-2.668 2.667v1.067c0 .295.239.534.534.534h24.539a.534.534 0 00.533-.534v-1.067a2.67 2.67 0 00-2.667-2.667h-6.402v-2.743a14.784 14.784 0 0010.168-1.503l-.077.039.818.823a.534.534 0 00.376.16.54.54 0 00.374-.155l1.513-1.504a.535.535 0 000-.754zM23.285 6.235a1.067 1.067 0 11.752 1.824h-.004a1.067 1.067 0 01-.747-1.823h-.002zm-1.256 3.504l-.599 2.947-1.176-1.183 1.774-1.764zm-.606-.902l-1.92 1.909-1.486-1.494 3.406-.416zm2.586 19.969a1.6 1.6 0 011.6 1.6v.534H2.137v-.534a1.6 1.6 0 011.6-1.6h20.271zm-7.468-2.134v1.067h-5.335v-1.067h5.335zm-5.334-1.066v-4.054c0-1.294 1.197-2.347 2.667-2.347s2.668 1.053 2.668 2.347v4.054h-5.335zm6.401-1.697v-2.358c0-1.882-1.675-3.414-3.734-3.414h-.058a3.798 3.798 0 00-3.214 1.771l-.009.016a13.822 13.822 0 01-3.812-9.552c0-2.315.567-4.497 1.569-6.416l-.036.077L26.92 22.746c-1.823.947-3.98 1.502-6.267 1.502-1.079 0-2.129-.124-3.137-.357l.093.018zm11.292-.684L7.838 2.039l.754-.752 7.937 7.982c.004 0 .006.007.01.01l13.117 13.194-.757.752z"/><path d="M13.879 20.271h-.007a1.6 1.6 0 00-.002 3.2h.007a1.6 1.6 0 00.002-3.2zm.373 1.979a.534.534 0 11-.379-.913.533.533 0 01.374.911h.005z"/></symbol><symbol id="astronaut" viewBox="0 0 32 32"><path d="M31.981 4.525a.535.535 0 00-.427-.362h-.003l-1.911-.278-.855-1.732c-.179-.365-.777-.365-.956 0l-.855 1.732-1.911.278a.534.534 0 00-.296.91l1.384 1.348-.326 1.903a.532.532 0 00.774.562l1.709-.899 1.709.899a.534.534 0 00.774-.565v.003l-.326-1.903 1.383-1.348a.535.535 0 00.134-.55l.001.004zm-2.463 1.328a.532.532 0 00-.153.472l.191 1.114-1-.526a.525.525 0 00-.501.001l.003-.001-1 .526.191-1.114a.534.534 0 00-.152-.473l-.811-.79 1.119-.162a.532.532 0 00.402-.292l.5-1.013.5 1.013a.532.532 0 00.402.292l1.119.162-.809.79zm-3.379 14.674h-1.067v1.067h1.067v-1.067zm0 2.134h-1.067v1.066h1.067v-1.066zm1.067-1.067h-1.067v1.067h1.067v-1.067zm-2.133 0h-1.067v1.067h1.067v-1.067zm-2.668 4.801h-1.067v1.067h1.067v-1.067zm0 2.134h-1.067v1.067h1.067v-1.067zm1.067-1.067h-1.067v1.067h1.067v-1.067zm-2.134 0h-1.067v1.067h1.067v-1.067zm-5.334-3.201h-1.067v1.067h1.067v-1.067zm0 2.134h-1.067v1.067h1.067v-1.067zm1.066-1.067h-1.067v1.067h1.067v-1.067zm-2.133 0H13.87v1.067h1.067v-1.067zM5.868 6.123H4.801V7.19h1.067V6.123zm0 2.134H4.801v1.067h1.067V8.258zM6.935 7.19H5.868v1.067h1.067V7.19zm-2.134 0H3.734v1.067h1.067V7.19z"/><path d="M24.72 14.163a1.781 1.781 0 00-1.179-.704l-.009-.001a1.769 1.769 0 00-1.344.355l.004-.003-1.253.96-1.898 1.417-1.358-.541c2.422-1.086 4.114-3.509 4.114-6.321 0-3.824-3.123-6.935-6.962-6.935S7.872 5.501 7.872 9.325c0 1.386.415 2.675 1.12 3.759l-2.769-.024c-.009 0-.016.005-.023.005a.511.511 0 00-.159.033l.004-.001c-.013.005-.026.007-.038.013-.006.003-.013.003-.019.006l-3.234 1.596-.001.001-1.893.91a.5.5 0 00-.065.036l.001-.001a1.782 1.782 0 00-.594 2.307l-.005-.01c.22.424.593.742 1.044.885l.013.003a1.772 1.772 0 001.388-.133l-.009.005 1.388-.738 2.264-1.17 1.357-.008-5.443 5.417-.001.001L.859 23.55a1.645 1.645 0 00-.491 1.174v.005c.002.92.748 1.664 1.668 1.664h.002a1.67 1.67 0 001.181-.486l1.315-1.309 1.741-1.3.901.897-3.102 3.089a1.645 1.645 0 00-.491 1.174v.004a1.662 1.662 0 001.667 1.664h.003c.428 0 .855-.162 1.181-.485l4.489-4.473c.007-.006.016-.009.022-.016l5.167-5.659 3.472.494a.474.474 0 00.262-.032c.017-.006.032-.015.049-.023.019-.01.039-.015.058-.027l3.214-2.134c.012-.008.018-.021.029-.03.013-.01.029-.014.041-.026l1.271-1.191a1.775 1.775 0 00.209-2.367l.003.005zM2.131 17.774a.706.706 0 01-.564.05l.005.001a.718.718 0 01-.215-1.259l.002-.001 1.314-.632.316.925.133.389-.992.527zm3.498-1.828l-1.549.8-.255-.747-.184-.537 2.027-1.001-.04 1.484zm15.103-6.622c0 .919-.219 1.785-.599 2.56l-4.182-1.9a1.863 1.863 0 00-.782-1.384l-.006-.004 1.465-4.862c2.378.757 4.105 2.975 4.105 5.589zm-11.792 0c0-3.235 2.645-5.868 5.896-5.868.253 0 .5.022.745.053l-1.433 4.754c-.019 0-.037-.006-.057-.006h-.001a1.872 1.872 0 00-1.872 1.867 1.872 1.872 0 001.872 1.867h.001c.695 0 1.295-.383 1.619-.945l3.864 1.755a5.893 5.893 0 01-4.738 2.39c-3.251 0-5.896-2.632-5.896-5.868zm5.958.8c0 .441-.362.8-.807.8h-.001a.804.804 0 01-.804-.8c0-.441.361-.8.806-.8s.806.359.806.8zM2.465 25.152a.606.606 0 01-.855.001.591.591 0 010-.844l.962-.959.852.848-.959.955zm3.214 3.734a.606.606 0 01-.855.001.591.591 0 010-.844l.963-.959.852.848-.96.956zm3.483-3.47l-.001.001-1.765 1.76-.852-.848 1.765-1.757a.527.527 0 00.09-.136c.007-.014.02-.026.026-.04.016-.041.019-.085.026-.128.003-.025.014-.048.014-.073 0-.035-.013-.07-.02-.105-.006-.032-.006-.064-.019-.096a.536.536 0 00-.092-.138c-.01-.012-.014-.027-.025-.038h-.001l-.001-.002-1.607-1.6c-.017-.017-.039-.024-.058-.038a.491.491 0 00-.084-.056l-.003-.001a.527.527 0 00-.09-.031l-.003-.001a.502.502 0 00-.101-.02h-.025a.603.603 0 00-.075.005h.003c-.036.005-.069.009-.104.021s-.064.027-.094.045c-.02.011-.043.015-.061.029l-1.774 1.324-.901-.898 2.4-2.387 4.361 4.29-.928.919zm6.821-7.018c-.016-.002-.03.004-.046.003l-.027-.001a.562.562 0 00-.092.008h.003a.484.484 0 00-.187.07l.002-.001a.492.492 0 00-.083.061c-.013.011-.028.016-.04.029l-4.699 5.147-4.329-4.257 2.834-2.819a.535.535 0 00-.378-.911h-.002l-2.219.013.028-1.608 3.105.027a6.93 6.93 0 004.979 2.101h.003c.438 0 .864-.046 1.28-.123.04.032.08.064.129.085l2.411.96.152.759.178.886-3.004-.428zm4.042.178l-.313-1.558 1.447-1.08.947 1.257-2.08 1.382zm3.754-2.831l-.838.785-.931-1.236.831-.637a.735.735 0 01.543-.143.718.718 0 01.621.71.71.71 0 01-.226.521z"/><path d="M13.605 18.548l-2.144-2.134a.53.53 0 00-.752 0l-2.143 2.134a.533.533 0 000 .756l2.143 2.134a.533.533 0 00.754 0l2.144-2.134a.532.532 0 000-.756zm-2.519 1.76l-1.387-1.381 1.387-1.381 1.388 1.381-1.388 1.381zm6.082-15.236l-.258 1.036c.071.018 1.738.452 1.738 2.149h1.067c0-2.017-1.666-2.966-2.547-3.185zm2.547 4.252h-1.067v1.067h1.067V9.324z"/></symbol><symbol id="client-logo-1" viewBox="0 0 29 32"><path d="M3.838 0l4.678 4.428h13.048v12.353l4.678 4.428V0H3.838z"/><path d="M-.002 4.241v20.604h21.763v-8.189L8.654 4.247l-8.656-.005zm17.617 17.59H3.441V7.973h1.002v12.919h13.172v.938zm-11.35 6.835l.524-1.079h.438l-.764 1.438v.838h-.397v-.838l-.764-1.437h.439l.524 1.079zm2.247.667h-.881l-.184.53h-.411l.859-2.276h.355l.861 2.276h-.413l-.186-.53zm-.77-.319h.659l-.33-.944-.33.944zm2.328.235c0-.105.029-.202.086-.289.058-.089.17-.193.339-.314a1.498 1.498 0 01-.182-.276l-.004-.008a.568.568 0 01-.052-.226c0-.179.054-.319.163-.422s.254-.156.437-.156a.57.57 0 01.406.147c.106.097.16.218.16.361v.003a.497.497 0 01-.074.262l.001-.002a.858.858 0 01-.233.236l-.003.002-.155.113.44.518a.914.914 0 00.095-.417h.33c0 .28-.065.51-.197.689l.334.396h-.44l-.128-.152a.93.93 0 01-.558.183h-.025.001c-.225 0-.405-.06-.54-.179a.597.597 0 01-.202-.447v-.021.001zm.754.342a.58.58 0 00.359-.128l-.497-.586-.049.035c-.125.095-.188.203-.188.325 0 .105.034.191.102.256a.375.375 0 00.254.099h.019-.001zm-.21-1.466c0 .088.054.197.161.33l.173-.118.049-.039a.283.283 0 00.097-.212v-.009-.002a.199.199 0 00-.067-.149.233.233 0 00-.162-.064h-.019a.224.224 0 00-.167.075.276.276 0 00-.066.179v.01zm4.134.998c-.023.243-.113.432-.269.568s-.364.204-.623.204a.902.902 0 01-.48-.128.86.86 0 01-.317-.362l-.002-.005a1.302 1.302 0 01-.117-.544v-.22c0-.214.038-.403.114-.567a.871.871 0 01.326-.378.913.913 0 01.494-.133c.251 0 .453.069.606.205s.243.329.268.578h-.394c-.019-.163-.067-.281-.144-.353-.076-.073-.188-.109-.336-.109a.464.464 0 00-.397.189c-.092.125-.138.309-.141.552v.202c0 .246.044.433.132.563s.218.194.387.194c.155 0 .272-.035.35-.105s.128-.186.149-.348h.394zm2.17-.338c0 .223-.038.419-.115.588a.88.88 0 01-.332.388.905.905 0 01-.494.134.926.926 0 01-.494-.134.897.897 0 01-.332-.38l-.002-.006a1.335 1.335 0 01-.119-.555v-.023.001-.128c0-.222.038-.418.117-.588s.19-.3.333-.389c.144-.091.309-.136.494-.136s.35.045.493.134c.143.089.255.217.333.384s.118.362.118.584v.126zm-.395-.119c0-.252-.048-.445-.143-.58a.465.465 0 00-.384-.202l-.022.001h.001-.016a.468.468 0 00-.384.2l-.001.002c-.096.133-.145.323-.147.567v.131c0 .25.049.444.146.58s.233.205.406.205c.175 0 .31-.067.403-.2.095-.133.142-.328.142-.584v-.118z"/></symbol><symbol id="client-logo-2" viewBox="0 0 25 32"><path d="M10.452 1.807h.084c.156 0 .324.015.49.03a13.96 13.96 0 012.18.329V.404c-.652-.172-1.42-.3-2.208-.357l-.042-.002c-.254-.02-.571-.035-.889-.043H9.783a18.345 18.345 0 00-4.516.582A18.282 18.282 0 00.475 2.533v17.48a18.993 18.993 0 014.432-1.751l.135-.029a19.11 19.11 0 013.781-.586l.053-.002h.052c.217-.011.433-.017.656-.018v-1.791a21.206 21.206 0 00-5.13.695l.147-.033a24.35 24.35 0 00-1.732.513l-.623.212V3.593l.266-.128c1.891-.919 4.097-1.513 6.427-1.649l.047-.002.028-.001.029.001h-.001c.248-.012.497-.018.742-.018h.28c.129.003.259.006.388.014z"/><path d="M14.842 3.652h-.016c-.915 0-1.812-.077-2.685-.225l.094.013c-.277-.047-.55-.103-.814-.164v17.28a13.87 13.87 0 003.426.404 18.448 18.448 0 004.645-.61l-.129.029a18.307 18.307 0 004.878-1.996l-.085.047V1.262a19.047 19.047 0 01-4.43 1.751l-.136.03a19.354 19.354 0 01-4.748.609zm6.91.299l.623-.209v13.634l-.267.129c-.903.443-1.963.834-3.066 1.118l-.119.026c-1.331.345-2.7.521-4.075.528-.411 0-.819-.017-1.215-.052l-.427-.038V5.066l.497.033c.361.023.735.034 1.141.034a21.059 21.059 0 005.174-.664 28.157 28.157 0 001.732-.518zM1.686 25.984a.916.916 0 00-.661-.281l-.034.001h.002-.014c-.139 0-.272.028-.393.078l.007-.003a.904.904 0 00-.51.512l-.002.006a1.003 1.003 0 00-.071.387v2.335c-.006.164.026.328.092.479a.83.83 0 00.554.479c.114.031.231.048.349.048a.986.986 0 00.968-.983v-.261h-.611v.222c0 .07-.013.136-.037.198l.001-.004a.37.37 0 01-.089.132.426.426 0 01-.255.089.308.308 0 01-.286-.125l-.001-.001a.548.548 0 01-.082-.289l.001-.024v.001-2.178a.74.74 0 01.075-.349.31.31 0 01.262-.143l.038.002H.988 1c.107 0 .201.052.261.131l.001.001a.493.493 0 01.101.3v.014-.001.202h.605v-.238-.011c0-.143-.027-.28-.077-.406l.003.007a.955.955 0 00-.205-.329zm3.627-.025a1.051 1.051 0 00-1.058-.191.964.964 0 00-.557.512l-.002.006a1.08 1.08 0 00-.089.452v2.239a1.08 1.08 0 00.089.459.888.888 0 00.236.313.959.959 0 00.323.197 1.053 1.053 0 001.06-.198l-.001.001a.948.948 0 00.23-.313c.063-.144.093-.301.089-.459v-2.24-.02c0-.156-.033-.305-.092-.439l.003.007a1.016 1.016 0 00-.23-.327zm-.285 3.018l.002.035a.398.398 0 01-.123.289.446.446 0 01-.575 0l.001.001a.4.4 0 01-.121-.326v.002-2.24l-.001-.034c0-.114.047-.216.123-.289a.446.446 0 01.575 0l-.001-.001a.398.398 0 01.121.326v-.002 2.241zm5.048 1.001v-4.241h-.587l-.771 2.245h-.01l-.777-2.244h-.58v4.24h.606v-2.579h.011l.593 1.823h.302l.598-1.823h.01v2.579h.606zm3.442-3.943a.834.834 0 00-.342-.232 1.31 1.31 0 00-.416-.066h-.024.001-.9v4.241h.604v-1.657h.311c.189.009.376-.031.545-.116a.89.89 0 00.33-.32l.002-.004a1.02 1.02 0 00.139-.369c.021-.133.033-.287.033-.444v-.04.002a2.426 2.426 0 00-.059-.606.906.906 0 00-.223-.39zm-.312 1.293a.538.538 0 01-.057.224l.001-.003a.342.342 0 01-.154.147l-.002.001a.617.617 0 01-.254.054l-.033-.001h.002-.276v-1.442h.311l.029-.001c.088 0 .172.02.247.055l-.004-.002a.35.35 0 01.141.154l.001.002a.62.62 0 01.053.236v.282c0 .099.006.201 0 .291h-.006zm3.174-1.591h-.496l-.934 4.241h.604l.177-.911h.824l.178.911h.605l-.958-4.241zm-.558 2.752l.297-1.537h.011l.295 1.537h-.604zm4.462-.197h-.011l-.912-2.555h-.581v4.241h.605v-2.55h.012l.923 2.55h.568v-4.24h-.604v2.555zm3.692-2.555l-.486 1.687h-.012l-.486-1.687h-.639l.83 2.449v1.792h.605v-1.792l.83-2.448h-.64zM.001 31.176h.291v.817H.49v-.817h.289v-.167H.001v.168zm2.448-.169l-.382.985h.21l.081-.224h.392l.084.224h.215l-.392-.985h-.21zm-.031.596l.134-.365.134.365h-.268zm2.451.026h.228v.127a.373.373 0 01-.234.083h-.014a.25.25 0 01-.195-.094.406.406 0 01-.073-.234l.001-.023v.001c0-.219.095-.329.283-.329l.021-.001c.097 0 .179.067.201.157v.001l.195-.038c-.042-.192-.18-.289-.417-.289h-.013a.492.492 0 00-.331.127.48.48 0 00-.141.38v-.002.023c0 .132.048.254.127.347l-.001-.001c.087.09.209.146.343.146l.032-.001H4.88h.016a.59.59 0 00.402-.158v-.388h-.427v.166zm2.472-.622h-.199v.985h.689v-.167h-.49v-.817zm2.089 0h-.199v.985h.199v-.985zm2.043.658l-.404-.657h-.193v.985h.185v-.643l.396.643h.198v-.985h-.182v.658zm1.847-.107h.491v-.167h-.491v-.215h.528v-.168h-.727v.985h.747v-.167h-.548v-.267zm4.478-.162h-.388v-.388h-.197v.984h.197v-.431h.388v.431h.198v-.985h-.198v.388zm1.858.162h.492v-.167h-.492v-.215h.529v-.168h-.726v.985h.746v-.167h-.548v-.267zm2.52.001c.171-.027.259-.118.259-.274a.23.23 0 00-.096-.219h-.001a.555.555 0 00-.25-.059l-.04.001h.002-.417v.984h.198v-.412h.055c.039 0 .076.008.109.023l-.002-.001a.201.201 0 01.07.072l.215.313h.236l-.12-.192a.704.704 0 00-.215-.235l-.002-.002zm-.2-.137h-.146v-.247h.156a.515.515 0 01.205.024l-.004-.001a.13.13 0 01-.009.2.537.537 0 01-.164.025l-.039-.001h.002zm2.1.136h.49v-.167h-.49v-.215h.529v-.168h-.729v.985h.747v-.167h-.548v-.267z"/></symbol><symbol id="client-logo-3" viewBox="0 0 31 32"><path d="M4.721 31.115c.023.001.044.01.06.025l.153.161c-.119.13-.266.234-.431.304a1.533 1.533 0 01-.61.109h-.031c-.196 0-.383-.038-.554-.106l.01.004a1.255 1.255 0 01-.71-.725l-.003-.009a1.591 1.591 0 01-.097-.55v-.022-.022c0-.198.038-.387.108-.56l-.004.01a1.32 1.32 0 01.298-.444c.13-.127.287-.225.459-.29.188-.07.389-.104.591-.102a1.47 1.47 0 01.55.093c.151.063.29.149.412.257l-.129.171a.134.134 0 01-.032.031.077.077 0 01-.045.014H4.71a.107.107 0 01-.056-.019l-.069-.045-.096-.059a1.024 1.024 0 00-.296-.101l-.006-.001a1.233 1.233 0 00-.209-.018h-.02.001-.016c-.147 0-.288.028-.417.079l.008-.003a.977.977 0 00-.334.216 1.002 1.002 0 00-.216.342 1.253 1.253 0 00-.079.453c-.002.156.025.313.079.46.046.126.119.242.212.341a.871.871 0 00.318.212c.125.049.259.074.395.073.078.001.156-.004.234-.015a.879.879 0 00.505-.235.115.115 0 01.072-.03zm4.424-.808c.002.194-.033.387-.103.568a1.26 1.26 0 01-.288.441 1.314 1.314 0 01-.444.286l-.009.003a1.695 1.695 0 01-1.176-.004l.012.004a1.3 1.3 0 01-.738-.727l-.003-.009a1.61 1.61 0 01.004-1.147l-.004.011a1.34 1.34 0 01.29-.447 1.32 1.32 0 01.441-.276l.009-.003a1.674 1.674 0 011.176.004l-.012-.004a1.29 1.29 0 01.741.729c.071.182.106.376.104.571zm-.403 0v-.024c0-.155-.027-.303-.076-.441l.003.009a.907.907 0 00-.522-.554l-.006-.002a1.219 1.219 0 00-.855.003l.009-.003a.903.903 0 00-.528.55l-.002.006a1.469 1.469 0 000 .913.903.903 0 00.524.553l.006.002c.273.097.573.097.846 0a.903.903 0 00.324-.214.972.972 0 00.205-.341c.052-.147.076-.302.073-.456zm3.42.478l.041.102c.015-.036.028-.069.044-.102.017-.04.034-.073.052-.105l-.002.005.978-1.694c.019-.03.037-.048.056-.053a.234.234 0 01.066-.009h.015-.001.289v2.756h-.342v-2.111l-.001-.048.001-.05v.002l-.984 1.719a.149.149 0 01-.057.062h-.001a.16.16 0 01-.082.022h-.057a.151.151 0 01-.141-.084v-.001l-1.013-1.73v2.213h-.331v-2.751h.303a.22.22 0 01.068.01h-.002a.107.107 0 01.053.052v.001l1 1.697c.018.028.035.06.048.094l.001.004zm3.683-.136v1.032h-.383v-2.752h.887c.158 0 .311.022.456.063l-.012-.003a.927.927 0 01.337.171.71.71 0 01.191.27.925.925 0 01.066.352.84.84 0 01-.071.352.776.776 0 01-.205.275l-.001.001a.953.953 0 01-.333.181l-.007.002a1.5 1.5 0 01-.462.064l-.463-.007zm0-.296h.464a.95.95 0 00.296-.042.627.627 0 00.215-.12l-.001.001c.056-.049.1-.11.129-.178l.001-.003a.565.565 0 00.046-.225v-.008l.001-.028a.506.506 0 00-.041-.199l.001.003a.533.533 0 00-.134-.188.763.763 0 00-.517-.148h.003-.464v1.135zm5.147 1.332h-.308a.134.134 0 01-.079-.026.168.168 0 01-.049-.063v-.001l-.261-.666h-1.307l-.27.666a.162.162 0 01-.047.062.135.135 0 01-.082.028h-.307l1.149-2.757h.398l1.164 2.757zm-1.896-1.024h1.079l-.456-1.122a1.813 1.813 0 01-.083-.246l-.003-.014-.044.144a1.282 1.282 0 01-.045.126l.003-.009-.452 1.12zm3.55-1.72c.023.013.043.03.058.05l1.675 2.077v-2.14h.342v2.757h-.196a.164.164 0 01-.074-.017h.001a.233.233 0 01-.061-.051l-1.674-2.076a.753.753 0 010 .095v2.05h-.342v-2.757h.203a.18.18 0 01.069.013zm4.898 1.647v1.094h-.383v-1.094l-1.059-1.66H26.452c.028 0 .054.009.075.024a.251.251 0 01.052.061l.001.001.663 1.071c.026.045.049.088.069.128s.034.078.048.116l.05-.118a.93.93 0 01.068-.13l-.002.004.653-1.078a.284.284 0 01.05-.059.117.117 0 01.076-.027h.353l-1.061 1.668zm-15.571-6.286c.167.02.335.037.506.051 2.583-1.102 4.769-2.903 6.283-5.181s2.291-4.931 2.232-7.628l-2.848-2.713c.189.894.297 1.922.297 2.975 0 2.016-.396 3.939-1.115 5.696l.036-.1c-1.091 2.732-2.958 5.122-5.392 6.901z"/><path d="M10.956 24.176l.077.015c2.601-1.773 4.585-4.249 5.694-7.107.627-1.565.991-3.379.991-5.278 0-1.297-.17-2.553-.488-3.75l.023.102-4.056-3.863c1.27 2.397 2.015 5.241 2.015 8.258 0 .702-.04 1.394-.119 2.075l.008-.083c-.397 3.52-1.834 6.859-4.145 9.632zM24.71 14.73c-.689 2.963-2.362 5.634-4.772 7.619a14.918 14.918 0 01-2.192 1.511l-.075.039a13.558 13.558 0 005.286-2.852l-.016.013a12.772 12.772 0 003.382-4.681l.031-.084-1.645-1.566z"/><path d="M24.066 14.294l-2.342-2.231a13.696 13.696 0 01-2.231 7.252l.032-.053c-1.394 2.17-3.374 3.945-5.732 5.139h.012c.526 0 1.05-.03 1.572-.089a14.486 14.486 0 005.651-3.951l.014-.017a13.405 13.405 0 003.006-5.96l.016-.089zM11.295 2.665L8.501 0C6.003.919 3.856 2.536 2.338 4.638S.004 9.229-.003 11.78c.01 2.819 1.005 5.554 2.83 7.773s4.374 3.794 7.244 4.478c2.562-2.974 4.063-6.649 4.283-10.492s-.852-7.651-3.06-10.874zM30.52 13.883c-.01-3.344-1.409-6.549-3.891-8.913s-5.845-3.698-9.356-3.707a13.685 13.685 0 00-4.743.841L29.635 18.4c.559-1.335.884-2.887.884-4.515v-.001z"/></symbol><symbol id="client-logo-4" viewBox="0 0 60 32"><path d="M9.23 9.553h-.002c-1.684 0-3.048 1.331-3.048 2.971v.002c0 1.64 1.365 2.971 3.048 2.971h.002c1.684 0 3.048-1.331 3.048-2.971v-.002c0-1.64-1.365-2.97-3.048-2.97zm22.503-.949a8.506 8.506 0 00-2.59-6.075 8.96 8.96 0 00-12.468-.002 8.505 8.505 0 00-2.59 6.077v12.567s17.646-1.915 17.649-12.565v-.002zM0 25.296a5.909 5.909 0 001.801 4.226l.002.001a6.22 6.22 0 004.337 1.758 6.217 6.217 0 004.338-1.759l-.002.002a5.901 5.901 0 001.803-4.224v-8.747S0 17.888 0 25.297zm6.14 1.566h-.003c-.331 0-.639-.098-.897-.267l.006.004a1.583 1.583 0 01-.588-.693l-.004-.01a1.511 1.511 0 01-.089-.915l-.002.01c.063-.304.216-.584.441-.802.22-.213.5-.365.813-.427l.01-.002c.312-.061.635-.03.929.089s.545.319.722.577a1.546 1.546 0 01.146 1.481l.004-.01c-.08.191-.199.365-.348.511s-.327.262-.522.341a1.61 1.61 0 01-.616.12h-.001v-.006zm12.533-.972h-1.256v1.297h-.655v-3.174h2.068v.53h-1.413v.819h1.256v.528zm3.144-.218c0 .313-.056.586-.166.822s-.269.417-.476.545a1.29 1.29 0 01-.682.192h-.025.001l-.039.001c-.504 0-.939-.296-1.141-.723l-.003-.008c-.109-.23-.173-.5-.173-.785v-.028.001-.158c0-.313.056-.588.168-.825a1.254 1.254 0 011.184-.739 1.3 1.3 0 01.704.192c.206.127.365.309.477.547s.17.511.17.822v.141zm-.662-.143c0-.333-.06-.586-.179-.759a.585.585 0 00-.485-.26l-.027.001h.001-.024a.58.58 0 00-.482.256l-.001.002c-.119.17-.18.42-.182.749v.155c0 .325.06.576.179.755s.291.268.515.268l.026.001c.2 0 .375-.101.479-.255l.001-.002c.118-.173.177-.424.179-.755v-.155zm2.783.826v-.018a.329.329 0 00-.131-.264l-.001-.001c-.087-.067-.244-.137-.47-.21a3.363 3.363 0 01-.558-.227l.019.009c-.36-.195-.541-.457-.541-.787 0-.171.048-.325.144-.458s.236-.24.417-.316c.182-.075.385-.113.61-.113s.429.042.606.124a.947.947 0 01.412.347c.099.15.149.32.149.511h-.655a.422.422 0 00-.137-.338c-.092-.082-.22-.123-.386-.123-.16 0-.284.034-.372.103a.315.315 0 00-.134.259v.008c0 .103.052.189.155.259.105.07.258.135.461.196.372.112.643.251.813.417s.255.372.255.618c0 .275-.104.491-.312.648s-.488.234-.84.234c-.244 0-.467-.045-.667-.133a1.081 1.081 0 01-.458-.365l-.002-.003a.934.934 0 01-.157-.522v-.019.001h.656c0 .35.21.525.628.525a.616.616 0 00.365-.094.312.312 0 00.131-.253v-.014.001zm3.491-1.812h-.972v2.644h-.654v-2.644h-.959v-.53h2.586v.53zm2.286 1.269h-1.256v.85h1.474v.525h-2.129v-3.174h2.124v.53h-1.47v.756h1.256v.513zm1.777.214h-.521v1.162h-.655v-3.174h1.18c.374 0 .664.083.868.251s.305.403.305.709a.992.992 0 01-.141.543.955.955 0 01-.419.341l-.006.002.687 1.297v.03h-.703l-.595-1.162zm-.521-.53h.528c.164 0 .291-.042.381-.124a.45.45 0 00.136-.323l-.001-.025v.001a.474.474 0 00-.129-.353c-.084-.086-.214-.129-.39-.129h-.526v.953zm3.964.573v1.119h-.655v-3.174h1.239c.238 0 .447.043.628.131s.321.211.418.372c.097.16.146.342.146.548 0 .311-.106.557-.32.737-.212.179-.506.268-.883.268h-.573zm0-.529h.584c.173 0 .305-.041.394-.123.092-.081.138-.197.138-.348l.001-.023a.522.522 0 00-.139-.355.519.519 0 00-.38-.149h-.599v.997zm4.138.272h-1.256v.85h1.474v.525h-2.129v-3.174h2.124v.53h-1.469v.756h1.256v.513zm3.035-1.269h-.972v2.644h-.655v-2.644h-.959v-.53h2.586v.53zm2.285 1.269h-1.256v.85h1.474v.525h-2.128v-3.174h2.124v.53h-1.47v.756h1.256v.513zm1.777.214h-.521v1.162h-.654v-3.174h1.18c.375 0 .665.083.868.251s.305.403.305.709a.983.983 0 01-.141.543.955.955 0 01-.419.341l-.006.002.687 1.297v.03h-.703l-.595-1.162zm-.521-.53h.528c.164 0 .29-.042.381-.124a.448.448 0 00.135-.322l-.001-.026v.001a.474.474 0 00-.128-.353c-.085-.086-.214-.129-.391-.129h-.525v.953zm3.844.859l.001-.018a.334.334 0 00-.13-.264l-.001-.001c-.088-.067-.245-.137-.471-.21a3.363 3.363 0 01-.558-.227l.019.009c-.36-.195-.541-.457-.541-.787 0-.171.048-.325.144-.458s.236-.24.417-.316c.181-.075.385-.113.61-.113s.429.042.606.124a.953.953 0 01.412.347c.099.15.149.32.149.511h-.655a.422.422 0 00-.137-.338c-.092-.082-.22-.123-.386-.123-.16 0-.284.034-.372.103a.315.315 0 00-.134.259v.008c0 .103.052.189.155.259.105.07.258.135.46.196.372.112.644.251.813.417s.255.372.255.618c0 .275-.104.491-.312.648s-.487.234-.84.234c-.244 0-.467-.045-.667-.133a1.081 1.081 0 01-.458-.365l-.002-.003a.934.934 0 01-.157-.522v-.019.001h.656c0 .35.208.525.627.525a.616.616 0 00.365-.094.312.312 0 00.131-.253v-.014.001z"/></symbol><symbol id="client-logo-5" viewBox="0 0 40 32"><path d="M3.056 26.747c.157.194.24.438.236.688l.001.053c0 .324-.141.615-.365.815l-.001.001a1.576 1.576 0 01-1.062.317H0V24.26h1.827a1.548 1.548 0 011.017.294l-.004-.003a.996.996 0 01.353.818v-.003c.011.24-.065.477-.212.667a.99.99 0 01-.556.34c.247.046.471.177.631.373zm-2.188-.659h.78a.733.733 0 00.497-.145.518.518 0 00.169-.383l-.002-.045v.002l.001-.037a.535.535 0 00-.167-.389.75.75 0 00-.514-.147h.003-.767v1.144zm1.354 1.672a.542.542 0 00.186-.408l-.001-.036v.002l.001-.032a.552.552 0 00-.189-.416l-.001-.001a.8.8 0 00-.48-.159l-.054.002h.002-.818v1.199h.829a.816.816 0 00.524-.151zm4.569.861l-1.017-1.704h-.382v1.704h-.874V24.26h1.655a1.624 1.624 0 011.156.373l-.003-.002a1.391 1.391 0 01.12 1.808l.003-.004a1.337 1.337 0 01-.789.443l1.083 1.743h-.951zm-1.399-2.299h.715c.497 0 .745-.22.745-.66l.001-.037a.651.651 0 00-.184-.454.767.767 0 00-.566-.177h.003-.724l.009 1.328zm6.177 1.421H9.827l-.308.878h-.917l1.6-4.313h.991l1.593 4.312h-.917l-.301-.878zm-.233-.66l-.637-1.841-.637 1.841h1.273zm6.216 1.538h-.869l-1.946-2.965v2.965h-.865V24.26h.865l1.946 2.983V24.26h.868v4.361zm4.953-1.044c-.182.33-.45.593-.775.765l-.01.005a2.545 2.545 0 01-1.22.274h-1.546V24.26H20.5l.067-.001c.42 0 .817.1 1.168.277l-.015-.007c.332.168.606.433.786.761.171.333.272.727.272 1.144s-.1.811-.278 1.158l.007-.014zm-.993-.104c.239-.278.384-.642.384-1.041s-.145-.763-.386-1.043l.002.002a1.5 1.5 0 00-1.091-.371h.004-.603v2.823h.603a1.501 1.501 0 001.088-.372l-.002.001zM12.113.001s11.203 4.246 10.966 10.391v10.393s-11.195-4.249-10.96-10.393L12.114.001zm20.945 18.351a15.153 15.153 0 017.05-2.628l.068-.006v-3.254c-2.995 1.181-5.438 3.227-7.082 5.827l-.035.06z"/><path d="M31.786 19.332c1.749-3.487 4.694-6.159 8.284-7.514l.105-.035V2.408S24.221 8.457 24.558 17.207v14.798s.711-.27 1.83-.778c0-.473 0-.95.05-1.43a15.39 15.39 0 015.327-10.448l.021-.017z"/><path d="M30.27 24.829a15.3 15.3 0 01.558-3.03 14.253 14.253 0 00-3.379 8.922v.016a43.925 43.925 0 003.287-1.742l-.218.118c-.191-.908-.3-1.952-.3-3.021 0-.445.019-.885.056-1.32l-.004.057zm.634.053a14.803 14.803 0 00.212 3.972l-.015-.092c4.359-2.619 9.257-6.665 9.068-11.554v-.426a14.275 14.275 0 00-8.299 3.895l.005-.005a14.243 14.243 0 00-.968 4.158l-.003.052z"/></symbol><symbol id="client-logo-6" viewBox="0 0 62 32"><path d="M31.126 14.86a2.248 2.248 0 01-.396-1.437v.007-2.075c0-.637.132-1.12.394-1.451s.715-.495 1.356-.494c.602 0 1.03.141 1.282.422.276.359.41.798.379 1.241v.487h-1.077v-.494l.001-.064c0-.148-.012-.293-.034-.435l.002.016a.482.482 0 00-.153-.287.575.575 0 00-.345-.113l-.048.002h.002a.614.614 0 00-.412.119l.002-.001a.568.568 0 00-.178.313l-.001.004a2.594 2.594 0 00-.042.513v2.518a1.425 1.425 0 00.142.715l-.004-.008a.526.526 0 00.212.171l.003.001a.544.544 0 00.28.04h-.003a.545.545 0 00.382-.115l-.001.001a.522.522 0 00.16-.303v-.003c.026-.167.037-.336.034-.504v-.511h1.077v.466a2.015 2.015 0 01-.377 1.311l.004-.006c-.247.308-.669.462-1.288.462s-1.088-.164-1.354-.506zm4.485.021c-.272-.323-.408-.794-.408-1.416v-2.183c0-.616.136-1.083.408-1.399s.726-.474 1.364-.473c.633 0 1.085.158 1.358.473.271.317.41.783.41 1.399v2.183c0 .616-.139 1.089-.415 1.414-.277.325-.727.487-1.354.487s-1.09-.164-1.364-.485zm1.866-.524c.097-.202.142-.424.129-.646v-2.672l.002-.072a1.28 1.28 0 00-.133-.569l.003.007a.528.528 0 00-.216-.173l-.003-.001a.533.533 0 00-.287-.037h.003a.546.546 0 00-.289.039l.004-.001a.536.536 0 00-.22.172l-.001.001a1.242 1.242 0 00-.129.633v2.685a1.29 1.29 0 00.129.646.672.672 0 00.222.158l.004.002a.692.692 0 00.558-.002l-.005.002a.672.672 0 00.226-.16v-.013zm2.561-4.884h1.16l.872 4.028.892-4.028h1.128l.113 5.813h-.833l-.089-4.04-.861 4.04h-.669l-.892-4.055-.083 4.055h-.843l.104-5.813zm5.466 0h1.806c1.04 0 1.56.55 1.56 1.651 0 1.054-.548 1.58-1.643 1.579h-.614v2.583h-1.115l.007-5.813zm1.543 2.484c.11.014.222.004.327-.028a.78.78 0 00.286-.155 1.01 1.01 0 00.16-.657l.001-.067c0-.163-.02-.322-.057-.474l.003.014a.425.425 0 00-.083-.161l.001.001a.484.484 0 00-.139-.116l-.002-.001a1.055 1.055 0 00-.499-.092h.003-.433v1.736h.433zm3.431-2.484h1.197l1.229 5.813h-1.039l-.243-1.341h-1.068l-.25 1.341h-1.055l1.229-5.813zm1.024 3.8l-.417-2.441-.417 2.441h.835zm2.395-3.8h.779l1.494 3.316V9.473h.925v5.813h-.742l-1.503-3.462v3.462h-.957l.002-5.813zm5.366 3.597l-1.242-3.588h1.046l.758 2.305.711-2.305h1.023l-1.226 3.588v2.217h-1.071V13.07zm-26.415 4.758v.304h-.91v2.362h-.381v-2.362h-.914v-.304h2.205zm2.852 2.665h-.302a.124.124 0 01-.075-.026.134.134 0 01-.048-.06v-.001l-.263-.633H33.75l-.264.633a.181.181 0 01-.04.072.124.124 0 01-.076.025h-.301l1.115-2.666h.388l1.128 2.656zm-1.847-.99h1.053l-.446-1.085a1.908 1.908 0 01-.08-.236l-.003-.014-.042.141-.04.111-.442 1.083zm3.769.729c.07.003.139.003.209 0 .061-.006.12-.017.179-.032a1.3 1.3 0 00.169-.052l-.009.003c.049-.019.099-.042.15-.065v-.6h-.451a.082.082 0 01-.055-.021.057.057 0 01-.022-.046v-.208h.865v1.022a1.61 1.61 0 01-.459.214l-.012.003a1.747 1.747 0 01-.269.055l-.009.001a2.896 2.896 0 01-.321.017h-.018c-.197 0-.386-.037-.56-.103l.011.004a1.34 1.34 0 01-.446-.279l.001.001a1.293 1.293 0 01-.285-.414l-.003-.008a1.426 1.426 0 01-.103-.536v-.018-.016c0-.195.037-.38.105-.551l-.004.01c.064-.158.161-.301.287-.422.127-.12.279-.214.446-.277a1.71 1.71 0 01.598-.099c.104 0 .207.007.31.023.09.014.179.036.266.067a1.2 1.2 0 01.223.106c.069.042.134.088.195.139l-.108.165a.103.103 0 01-.036.036.098.098 0 01-.051.014.137.137 0 01-.07-.021h.001a1.281 1.281 0 01-.114-.066l.005.003a.905.905 0 00-.143-.07l-.007-.002a1.21 1.21 0 00-.197-.058l-.008-.001a1.495 1.495 0 00-.268-.023h-.016.001-.013c-.15 0-.293.027-.425.077l.008-.003a.912.912 0 00-.328.211.924.924 0 00-.207.332 1.338 1.338 0 00.003.898l-.003-.009c.049.125.125.24.223.335a.952.952 0 00.326.212c.142.046.292.064.442.053zm3.554-.043h1.218v.304h-1.59v-2.666h.381l-.009 2.362zm2.484.304h-.381v-2.665h.381v2.666zm1.418-2.653a.192.192 0 01.057.048l1.63 2.01-.002-.048.002-.05v.002-1.986h.332v2.676h-.191l-.013.001a.171.171 0 01-.071-.016h.001a.266.266 0 01-.06-.05l-1.628-2.007v2.073h-.319v-2.665h.198c.022 0 .043.004.063.013zm4.827-.012v.294h-1.351v.88h1.095v.282h-1.095v.91h1.351v.294h-1.743v-2.66h1.743zM9.951 1.363l16.93 4.551v15.947L9.952 17.313V1.363zM8.865.004v18.083l19.099 5.136V5.141L8.865.004z"/><path d="M19.102 31.617L0 26.477V8.395l19.102 5.138v18.084z"/><path d="M9.182 1.159l16.709 4.494-7.106 6.729L2.074 7.886l7.108-6.728zM8.865.004L0 8.396l19.102 5.138 8.863-8.392L8.866.004zM20.176 30.6l7.788-7.375-7.788-2.096V30.6z"/></symbol><symbol id="clock" viewBox="0 0 32 32"><path d="M31.303 15.304C31.302 6.85 24.447-.002 15.992 0S.686 6.857.688 15.311C.69 22.1 5.111 27.856 11.231 29.859l.108.031a.667.667 0 00.529-.065.642.642 0 00.284-.357l3.866-12.253a1.914 1.914 0 10-.851-3.63l.011-.005-5.107-5.108a.638.638 0 00-.902.902l5.104 5.11a1.873 1.873 0 00.533 2.307l.004.003-3.683 11.676C3.848 25.788.12 17.713 2.802 10.434S13.558-.573 20.838 2.109c7.279 2.681 11.007 10.756 8.325 18.036-1.345 3.582-4.004 6.408-7.375 7.94l-.088.036-.398-1.875a.639.639 0 00-1.05-.343l.001-.001-3.838 3.427a.639.639 0 00.227 1.084l.005.001 4.9 1.564a.637.637 0 00.818-.744l.001.004-.391-1.839c5.529-2.375 9.331-7.773 9.331-14.06v-.034.002zm-15.307-.637a.638.638 0 010 1.276.638.638 0 010-1.276zm2.1 14.867l2.185-1.949.603 2.841-2.788-.892z"/><path d="M15.358 3.186v1.276a.638.638 0 001.276 0V3.186a.638.638 0 00-1.276 0zM3.877 14.667a.638.638 0 000 1.276h1.276a.638.638 0 000-1.276H3.877zm24.238 1.276a.638.638 0 000-1.276h-1.276a.638.638 0 000 1.276h1.276z"/></symbol><symbol id="diagram" viewBox="0 0 32 32"><path d="M14.929 14.968h1.066v4.799h-1.066v-4.799zm4.265 2.133h1.066v2.666h-1.066v-2.666zM10.663 18.7h1.066v1.066h-1.066V18.7zm-3.198-.533h1.066v1.599H7.465v-1.599z"/><path d="M1.599 28.297h25.592a1.6 1.6 0 001.599-1.599v-2.133a1.6 1.6 0 00-1.599-1.599h-.533V9.669L29.686 6.8a1.61 1.61 0 10-.743-.753l-.004-.01L26.657 8.2V6.97a1.6 1.6 0 00-1.599-1.599H3.731A1.6 1.6 0 002.132 6.97v15.995h-.533A1.6 1.6 0 000 24.564v2.133a1.6 1.6 0 001.599 1.599zM30.391 4.838a.533.533 0 010 1.066.533.533 0 010-1.066zM3.199 6.97c0-.294.239-.533.533-.533h21.327c.294 0 .533.239.533.533v2.239l-1.066 1.013V8.036a.534.534 0 00-.534-.534H4.798a.534.534 0 00-.534.533v13.33c0 .294.239.533.534.533h19.194a.534.534 0 00.534-.533v-9.677l1.066-1.011v12.286H3.198V6.969zm4.799 6.932h-.005a1.6 1.6 0 101.113 2.748l1.853.93a.533.533 0 00.636-.123l3.94-4.433 3.873 2.902a.534.534 0 00.686-.039l3.366-3.188v8.133H5.333V8.569H23.46v2.661l-3.772 3.572-3.905-2.928a.534.534 0 00-.718.071v.001l-3.994 4.494-1.493-.747c.011-.064.017-.129.02-.193a1.6 1.6 0 00-1.599-1.599zm.533 1.599a.533.533 0 01-1.066 0 .533.533 0 011.066 0zm3.199 8.531h5.331v.533a.533.533 0 01-.533.533h-4.266a.533.533 0 01-.533-.533v-.533zm-10.663.533c0-.294.238-.533.533-.533h9.064v.533a1.6 1.6 0 001.599 1.599h4.266a1.6 1.6 0 001.599-1.599v-.533h9.064c.294 0 .533.239.533.533v2.133a.533.533 0 01-.533.533H1.6a.533.533 0 01-.533-.533v-2.133z"/></symbol><symbol id="facebook" viewBox="0 0 32 32"><path d="M21.336 5.314h2.924V.224A36.528 36.528 0 0020.151 0h-.156.008c-4.214 0-7.102 2.651-7.102 7.523v4.482H8.253v5.69h4.648v14.318h5.701V17.697h4.461l.707-5.69H18.6V8.084c0-1.644.443-2.769 2.735-2.769z"/></symbol><symbol id="instagram" viewBox="0 0 32 32"><path d="M31.98 9.412c-.074-1.701-.349-2.87-.743-3.883a7.845 7.845 0 00-1.851-2.838l-.001-.001A7.896 7.896 0 0026.606.863l-.054-.018C25.532.451 24.37.178 22.669.102 20.956.02 20.412.001 16.065.001c-4.346 0-4.89.019-6.598.094-1.7.074-2.87.349-3.882.743a7.84 7.84 0 00-2.84 1.851l-.001.001A7.893 7.893 0 00.918 5.469L.9 5.523C.505 6.543.231 7.705.156 9.406.074 11.119.055 11.663.055 16.01c0 4.346.019 4.89.094 6.598.075 1.701.351 2.87.744 3.883a7.936 7.936 0 001.849 2.838l.001.001c.8.813 1.77 1.444 2.833 1.844 1.02.395 2.183.671 3.883.744 1.708.075 2.252.094 6.598.094 4.347 0 4.892-.019 6.598-.094 1.701-.074 2.87-.349 3.883-.743a8.237 8.237 0 004.666-4.63l.019-.055c.394-1.02.669-2.183.744-3.883.075-1.708.093-2.252.093-6.598s-.006-4.89-.08-6.598zm-2.881 13.07c-.07 1.564-.333 2.407-.551 2.971a5.339 5.339 0 01-3.005 3.025l-.036.013c-.56.219-1.412.482-2.969.551-1.689.075-2.194.094-6.467.094-4.27 0-4.784-.019-6.467-.094-1.564-.069-2.407-.331-2.971-.551a4.935 4.935 0 01-1.836-1.193l-.001-.001a4.987 4.987 0 01-1.184-1.803l-.011-.034c-.218-.563-.48-1.413-.549-2.971-.075-1.689-.094-2.196-.094-6.467 0-4.272.019-4.786.094-6.467.069-1.564.331-2.407.549-2.971A4.891 4.891 0 014.8 4.746l.002-.002a4.975 4.975 0 011.806-1.183l.034-.011c.56-.219 1.412-.48 2.969-.551 1.689-.074 2.196-.093 6.467-.093 4.277 0 4.784.019 6.467.093 1.564.069 2.407.331 2.971.551a4.934 4.934 0 011.838 1.194c.531.52.938 1.144 1.196 1.841.218.56.48 1.412.549 2.969.075 1.689.094 2.194.094 6.467 0 4.27-.019 4.77-.094 6.46z"/><path d="M16.065 7.785a8.225 8.225 0 00-8.222 8.224 8.227 8.227 0 0016.448.008v-.009a8.225 8.225 0 00-8.224-8.224zm0 13.558a5.335 5.335 0 01.001-10.67h.001a5.336 5.336 0 110 10.672zM26.535 7.46a1.92 1.92 0 11-3.842 0 1.92 1.92 0 113.842 0z"/></symbol><symbol id="linkedin" viewBox="0 0 32 32"><path d="M32.005 32.013h.008V20.271c0-5.743-1.237-10.167-7.95-10.167-3.228 0-5.394 1.77-6.279 3.451h-.093V10.64h-6.367v21.372h6.63V21.43c0-2.787.528-5.482 3.979-5.482 3.4 0 3.449 3.18 3.449 5.66v10.406h6.623zM.528 10.639h6.638v21.373H.528V10.639zM3.845 0A3.845 3.845 0 000 3.845c0 2.121 1.722 3.88 3.845 3.88 2.121 0 3.843-1.758 3.843-3.88S5.967.002 3.845 0z"/></symbol><symbol id="mail" viewBox="0 0 43 32"><path d="M38.667 0H4C1.794 0 0 1.794 0 4v24c0 2.206 1.794 4 4 4h34.667c2.206 0 4-1.794 4-4V4c0-2.206-1.794-4-4-4zm0 2.667c.181 0 .353.038.511.103L21.334 18.236 3.49 2.77a1.32 1.32 0 01.511-.103h34.667zm0 26.666H4A1.334 1.334 0 012.667 28V5.587L20.46 21.008a1.335 1.335 0 001.748 0L40.001 5.587V28c0 .736-.598 1.333-1.333 1.333z"/></symbol><symbol id="smartphone" viewBox="0 0 20 32"><path d="M17 0H3C1.346 0 0 1.346 0 3v26c0 1.654 1.346 3 3 3h14c1.654 0 3-1.346 3-3V3c0-1.654-1.346-3-3-3zM3 2h14a1 1 0 011 1v21H2V3a1 1 0 011-1zm14 28H3a1 1 0 01-1-1v-3h16v3a1 1 0 01-1 1z"/><path d="M4.707 27.478c.391.365.391.956 0 1.321s-1.024.365-1.414 0c-.391-.365-.391-.956 0-1.321s1.024-.365 1.414 0z"/><symbol id="twitter" viewBox="0 0 32 32"><path d="M32.013 6.081c-1.1.494-2.377.857-3.714 1.029l-.068.007a6.555 6.555 0 002.874-3.581l.013-.046a12.87 12.87 0 01-4.078 1.574l-.084.014a6.56 6.56 0 00-11.35 4.485v.004c0 .52.043 1.021.152 1.497-5.457-.266-10.284-2.881-13.527-6.863a6.541 6.541 0 00-.903 3.314v.001a6.572 6.572 0 002.915 5.453 6.442 6.442 0 01-2.995-.824l.033.017v.072a6.595 6.595 0 005.215 6.443l.043.008a6.41 6.41 0 01-1.663.215h-.061.003c-.419 0-.844-.024-1.242-.112.85 2.599 3.262 4.511 6.132 4.571a13.103 13.103 0 01-8.126 2.801h-.013.001-.062c-.532 0-1.055-.034-1.569-.099l.061.006c2.827 1.847 6.289 2.945 10.008 2.945h.063-.003c12.077 0 18.679-10.004 18.679-18.676 0-.288-.01-.57-.024-.848a13.216 13.216 0 003.26-3.356l.03-.047z"/></symbol></defs></svg>